<svg xmlns="http://www.w3.org/2000/svg" viewBox="0 0 561.4741 92.1116"><title>partner</title><path d="M13.3342,55.6744A3.7637,3.7637,0,0,1,10.3425,59.06a10.0693,10.0693,0,0,1-2.9463.334V52.0231a18.7765,18.7765,0,0,1,2.6216.0849A3.557,3.557,0,0,1,13.3342,55.6744Zm4.7793-.1806a6.4561,6.4561,0,0,0-5.2993-6.8115c-2.5107-.6573-5.0513-.5079-10.9507-.5079V71.4752H7.3962V63.3239a19.7045,19.7045,0,0,0,5.4956-.9864C16.4128,61.1364,18.1135,58.8014,18.1135,55.4938Z" transform="translate(-1.8635 -2)" fill="#fff"/><path d="M35.7512,59.8248c0,5.9688-2.2549,8.0118-4.8379,8.0118s-4.8-2.043-4.8-8.0118c0-5.9726,2.2539-8.1533,4.8-8.1533C33.4548,51.6715,35.7512,53.8522,35.7512,59.8248Zm5.7779,0c0-7.3916-4.5787-12.0537-10.6158-12.0537-6.0791,0-10.6206,4.6621-10.6206,12.0537S24.8011,71.88,30.9133,71.88C36.9875,71.88,41.5291,67.2155,41.5291,59.8248Z" transform="translate(-1.8635 -2)" fill="#fff"/><path d="M50.7707,59.1334v-7.11h1.0884a12.5986,12.5986,0,0,1,2.2613.1211,3.4223,3.4223,0,0,1,3.2055,3.2822c0,2.1094-1.8584,3.26-3.7128,3.5732a9.4877,9.4877,0,0,1-1.754.1338Zm1.0884,3.6748a13.27,13.27,0,0,0,1.32-.1455l4.1836,8.8125H63.03L57.61,61.7125c3.166-1.1972,4.4951-3.2353,4.4951-6.1816,0-4.3018-2.5346-6.1279-5.6587-6.874a20.1471,20.1471,0,0,0-4.5874-.4825H45.2468V71.4752h5.5239V62.85C50.9636,62.85,51.8591,62.8082,51.8591,62.8082Z" transform="translate(-1.8635 -2)" fill="#fff"/><path d="M76.5427,52.6891V71.4752H71.05V52.6891H64.8762V48.1744H82.7468v4.5147Z" transform="translate(-1.8635 -2)" fill="#fff"/><path d="M96.4177,71.88c-5.6714,0-10.0054-2.5517-10.0054-9.542V48.1744h5.4918V62.45c0,3.42,1.129,5.5293,4.5136,5.5293,3.3414,0,4.5044-2.1093,4.5044-5.5293V48.1744h5.4922V62.3375C106.4143,69.3278,102.1614,71.88,96.4177,71.88Z" transform="translate(-1.8635 -2)" fill="#fff"/><path d="M144.9911,62.4166h-5.2184l2.4072-8.74h.1084Zm8.7523,9.0586-8.8345-23.5244h-5.3457l-8.188,23.5244h6.0035l1.2929-4.75h7.6128l1.4541,4.75Z" transform="translate(-1.8635 -2)" fill="#fff"/><path d="M156.8039,71.4752V48.1744h5.5269V67.3737l4.4365-.4092h4.5v4.5107Z" transform="translate(-1.8635 -2)" fill="#fff"/><path d="M122.3132,71.88c-7.0923,0-12.5049-3.8252-12.5049-11.8008,0-7.7207,5.8478-12.3769,13.0142-12.3769a23.804,23.804,0,0,1,5.7368.6924v4.05a32.5271,32.5271,0,0,0-4.9331-.5557c-4.9053,0-8.0005,2.7139-8.0005,8.083,0,5.72,3.38,7.7022,6.7251,7.7022a8.5115,8.5115,0,0,0,1.125-.1006V62.2858l-3.6289-.52v-3.374h9.083V70.9244A22.8524,22.8524,0,0,1,122.3132,71.88Z" transform="translate(-1.8635 -2)" fill="#fff"/><path d="M264.2258,69.4664c1.62.7159,1.4615,2.4063,2.857,3.2491,1.5576,2.6533,3.3339,5.6806,1.9213,8.9921.9966,4.6036-3.1528,6.3174-4.9907,9.8633-1.1323.4444-1.8379,2.0244-3.3916,1.3535a4.031,4.031,0,0,1-3.187.6319c-.41.74-1.3476.0508-1.8716.49C248.78,94.63,244.63,88.7946,240.1174,84.6c-.65-.8056-1.5873-.8486-2.3667-1.7461-1.12-.0332-1.9076-1.375-3.1259-.6748a6.4619,6.4619,0,0,1-2.8282,1.1934c-.2417.7656-1.3075.1426-1.1552,1.0771-2.087.417-1.2153,3.6582-3.8116,2.8457-.9873.3448-1.2456-.8584-2.0215-.997.1675-1.0108-.2241-1.5547.2715-2.4082,1.5293-.7461,3.03-1.9834,4.3794-2.8174.2495-.7412,1.4279-.7412,2.0957-1.23.19-.3106.521-.291.7495-.544,2.1621.2774,4.688-.289,6.4757.7881,2.15.7432,4.2958,2.9278,5.9833,4.2959,1.55,2.1485,3.6538,4.9043,6.1167,5.4248.5664,1.5332,2.8281.8418,4.2393,1.2627.3139-.0576.7178-.4677.9311-.1543.8628-.2871,2.1172,0,2.6211-.8535,1.0908.0781,1.8076-.8711,2.8169-1.0088.251-.2.2906-.7724.7666-.5371,1.0586-1.1123,2.9126-2.206,2.9331-3.9824.9121-.7656-.0913-1.7207.2661-2.7686.9131-3.1748-.4741-5.916-1.9242-8.4257a44.6706,44.6706,0,0,0-4.0015-2.37c-2.8525-.1845-6.3443-.374-7.6778,1.7754-.104,1.6328-2.3789,1.2676-1.6,3.2774-.4165,2.3017,1.7124,3.05,2.82,4.5635,1.7675-.5489,2.4506,1.2763,4.2455.7177a6.1449,6.1449,0,0,0,2.1123-2.35,3.6069,3.6069,0,0,1-.4785-2.251c.9224-.039.4283-1.1962,1.3492-1.2421.9316-.0928.5107.9677,1.0649,1.3339.8647.93.76,2.7813.4146,4.0957-.602.23-.3243.84-.42,1.2881a6.6611,6.6611,0,0,1-4.3638,2.8164c-3.4409-.3545-6.1533-1.5429-8.1909-4.5625-.9345-1.2216-2.0508-2.9248-1.3261-4.6894.1679.0644.2548-.0772.3764-.1631-.75-.7559.7163-1.2178.25-1.8516a8.7286,8.7286,0,0,1,5.2085-5.3877c1.6362.6377,2.8828-.9414,4.64-.5869C260.0637,68.29,262.2009,68.7858,264.2258,69.4664Z" transform="translate(-1.8635 -2)" fill="#006cb7"/><path d="M222.7717,87.7877c2.02,1.836,5.1958,1.9961,7.7915,1.3037,2.2417-.6406,3.396-2.6875,5.4-3.8964.6543,0,1.0088.7128,1.6656.7441-1.9781,2.2988-3.3819,4.831-6.3184,5.74-2.0469.3545-4.4346.959-6.502.1983-1.7329-.1-2.5947-1.1358-4.0825-1.8526v-.37a18.8181,18.8181,0,0,1-2.9673-3.5312c-.7464-.5537-.7324-1.1133-1.4741-1.4873-.292-1.24-1.6709-2.1856-2.605-2.97-1.1069-1.1416-3.1-.9013-4.8379-.9336-3.1918-.1064-4.36,3.8819-7.0449,4.64-.3374.6894-1.3457.64-1.3008,1.4941,2.9673,1.2744,4.0425-2.2519,6.3174-2.7968a6.0871,6.0871,0,0,1,6.2959,3.3466c.6133,1.0293,2.2285,1.95,1.8667,3.5381a1.995,1.995,0,0,1-1.4883.3584,34.5389,34.5389,0,0,1-4.8291-4.2646c-1.1913-.1084-1.97.8056-3.1493.7392-1.4049.7354-1.9576,2.3194-3.7125,2.2373-1.6084,0-2.9492-.6806-4.4585-.9336-.3886-.6757-1.23-.2373-1.8486-.372-1.1387-1.5733-1.7261-3.7188-2.6016-5.58-.5654-.4668-.3452-1.2764-1.1078-1.66-.85-.4609-1.9166.4883-2.042-.9287-2.9874-.15-4.7989,2.1221-5.9376,4.45-.0444,1.5518.1577,3.3252,1.6631,3.8955.7749,1.0186,2.49.4961,2.7749,1.874.8667-.3544,1.9922-.0283,2.6079-.9423a3.6324,3.6324,0,0,0-1.1083-3.336c-1.5-.9218-2.3092.9131-3.7134.7412a.5954.5954,0,0,1-.9361.1836c-.8428-.2285.1289-.8642-.1792-1.4775,1.2163-2.17,3.95-2.001,6.1245-1.6807,2.0669.6084,1.98,3.2412,3.3335,4.461.5113,2.2539-1.601,3.2959-2.77,4.6425-2.1211,1.8838-4.3413-.4013-6.6875-.1953a5.8017,5.8017,0,0,1-3.1548-2.0332,10.728,10.728,0,0,1-.562-8.3388c.4741-.0528.5752-.5586.562-.9414,2.3911-2.3692,5.8169-4.3916,9.6626-3.5284,3.7823,1.1787,3.8911,5.5166,6.1129,8.167.207.2129.396.4951.7377.375.3457-.1123-.4047-1.0146.3789-.7431.5991-1.31,1.13-2.8457,2.4009-3.711.0449-.7373.8785-1.1084,1.3115-1.68.8667-.0293,1.1792-1.6142,2.4033-1.2978.8345-1.6836,3.01-.8477,4.2637-1.8418C216.0828,76.5924,218.8083,83.694,222.7717,87.7877Z" transform="translate(-1.8635 -2)" fill="#006cb7"/><path d="M229.9471,7.8131c.312,2.1611,1.7275,4.0982.92,6.4824-.5253.3345-.4829,1.03-.7417,1.3135-.478.9805-.4292,2.2031-1.4706,2.9585-.4957,1.34-2.0875,2.0664-2.797,2.99a11.6672,11.6672,0,0,1-10.207,2.0268,4.2415,4.2415,0,0,1-3.1084-1.1909,22.6842,22.6842,0,0,0-1.9551-2.0781c-.52-.4742-.4419-1.5938-.6909-2.6582-.4706-1.2735,0-2.2315,0-3.3614a8.9808,8.9808,0,0,1-1.6626-3.706c.653-2.1182,2.7583-2.9058,4.3784-4.3071,3.05-2.6534,7.45-5.7749,11.959-3.49C226.9084,3.9122,228.33,5.7482,229.9471,7.8131Z" transform="translate(-1.8635 -2)" fill="#ff9b00"/><path d="M242.6008,6.0079c1.0967,1.1714,2.147,2.5122,3.1836,3.87,1.05.2231,1.5177-.9292,2.4121-1.104.791-.7652,1.7261-1.9541,2.9668-2.04,1.2.2188,1.6021,1.148,2.604,1.8526a3.3744,3.3744,0,0,0,1.2866,2.0434c2.06-.4438,4.0513-1.521,6.2062-1.7,1.2606,1.666-.0426,3.91-.4435,5.5957-.5878,2.064-1.7455,3.4375-2.5932,5.3819.0347,1.06-.8281,1.7524-1.31,2.5976a6.1276,6.1276,0,0,1-1.6748,3.3374c.166,1.0332-1.05,1.0567-.917,2.0239-2.353,2.1578-2.59,5.15-5.0112,7.2666-.96,1.6314-2.4761,2.7227-3.7168,4.0835-1.0522,1.7154-2.9731,1.7622-4.2554,3.709-.8457.1-1.3042,1.1753-2.059,1.4727-1.3873,1.8174.2851,3.7422,0,5.7646,1.34,2.0459-.1075,4.333-.19,6.4981-.4087.9941-1.0542,1.4043-1.4751,2.416.1084,2.4346,3.3277,4.1142,4.5747,4.4111a.8424.8424,0,0,1,.8009.5108c.0116.3886-1.523.9257-2.254,2.1211.2647,1.1142,2.1616,1.4726,2.4272,2.1884-.64.8731-2.42,1.0166-2.74,1.7891.6528.8633,2.76.9346,3.4912,1.6436.1168.9677-1.2041.6943-1.6538,1.2509a22.0869,22.0869,0,0,1-11.52-.5566c-2.8727-.3906-5.563.6318-8.3595.9277-1.208-.2021-1.27.625-2.3642.0322-.208.0137-.39-.1621-.7808-.0322-.5337.7022-2.0889-1.498-2.0337-2.5849.5923-.8252-.4961-2.4883.9243-2.8028.81-1.251,1.6129-2.9687.7339-4.4414-2.355-2.1006-1.579-5.49-2.9575-7.98.2109-2.1338-.3174-4.416.92-6.498-.1469-.3682.25-.6621.3794-.7569,1.2158-3.2744,4.4253-5.9672,3.6992-9.831-.4672-.9365.026-1.1665-.245-1.811-.2222-1.106-.754-1.543-.1168-2.8287.9341-4.2392,5.8125-4.8711,8.9092-7.2378,3.541-.7734,5.2783-4.749,7.0576-7.4326a1.7757,1.7757,0,0,1,.3706-1.2832c1.8916-1.5674,1.5514-4.6928,3.15-6.7026-.1753-.7051.2627-1.1514.5576-1.6636a13.5766,13.5766,0,0,1,1.08-4.0654C242.0721,5.338,242.3884,5.57,242.6008,6.0079Z" transform="translate(-1.8635 -2)" fill="#e20a16"/><path d="M192.2551,12.1925c2.8,2.9942,4.1875,7.9531,7.6211,10.2007a7.71,7.71,0,0,0,5.3955,3.3315c1.146,1.4707,3.4834.8662,4.8252,2.2188,1.6622-.4927,1.8159,1.4761,3.3369,1.3154.688.9868,1.6426,1.7114,2.0508,2.9727.5982,3.7358-2.4585,5.9468-2.4175,9.4565-1.8867,3.8594.3965,7.8125.1773,11.8809a4.5922,4.5922,0,0,1-.5508,2.7851c-.0439,3.4561-2.3481,5.7842-4.4595,8.1621-.7656,2.3907.9336,5.752-1.2915,7.6163-1.01.0166-1.7583.746-2.7925.746a14.5667,14.5667,0,0,1-5.9326.1846c-.6284-.8721-2.0742.2061-2.5957-.9306-.9057-.6221-2.4223-.3428-3.3564-.38-2.3325-.2373-4.3985.0742-6.9639-.2276a4.409,4.409,0,0,1-1.6674.0528c-.8-.4649.226-1.4317.792-1.79a3.8138,3.8138,0,0,0,1.2773-.8515c.2505-1.0264-2.0181-.833-1.7325-1.8858.7173-.51,2.5342-1.0381,2.2945-2.1308-.4185-1.3174-2.356-1.5635-2.562-2.6329,1.7227-1.4531,4.4394-1.9658,6.9043-2.0458.2827-.752,1.3354-.3614,1.2929-1.0918.2657-.7706,1.1748-1.5215.5572-2.4219-.2989-.4336.1259-.8692-.3746-1.3145a5.7733,5.7733,0,0,0,.1822-2.2236c.7148-.81-.2973-1.6563.5688-2.3984-.1826-1.72,1.0156-3.254,1.1045-4.4585-.1264-.7847.3667-.4947.7695-1.5547.3926-1.0938.9136-1.23,1.0884-1.8941.1753-.6679-.1167-3.9218-2.0332-4.9062-2.0473-.792-2.896-2.9243-4.4555-4.0855-1.5625-2.2216-2.2237-5.4619-4.4566-7.2256-.2172-1.9306-1.0889-2.103-1.3935-4.1831a12.7559,12.7559,0,0,1-1.2984-3.2573c1.2037-1.081,3.5332,1.27,4.249-.0376-.0366-.7881-.3535-2.8686.4507-3.15,1.3711.0527,2.9737.79,3.895.3159C191.8376,15.48,190.6218,12.1881,192.2551,12.1925Z" transform="translate(-1.8635 -2)" fill="#008131"/><polygon points="16.979 30.588 19.233 30.588 19.233 15.226 24.508 15.226 24.508 13.331 11.732 13.331 11.732 15.226 16.979 15.226 16.979 30.588" fill="#fff" fill-rule="evenodd"/><path d="M28.6374,15.3312v10.165c0,5.377,2.6622,7.374,6.1958,7.374,3.7379,0,6.5293-2.1513,6.5293-7.4511V15.3312H39.1091V25.5729c0,3.79-1.6635,5.4795-4.2,5.4795-2.3042,0-4.021-1.6392-4.021-5.4795V15.3312Z" transform="translate(-1.8635 -2)" fill="#fff" fill-rule="evenodd"/><path d="M45.5974,32.588h2.2285V25.1115h2.1c2.0214.0766,2.97.9736,3.482,3.3549a21.4328,21.4328,0,0,0,1.1263,4.1216h2.3042a31.0256,31.0256,0,0,1-1.3052-4.7358c-.4365-1.7935-1.2285-3.0225-2.5366-3.4824v-.0777a4.552,4.552,0,0,0,3.2539-4.3774,4.3082,4.3082,0,0,0-1.3584-3.2779c-1.0747-.9726-2.6372-1.4335-5.018-1.4335a23.1758,23.1758,0,0,0-4.2769.3842Zm2.2285-15.4389a9.3107,9.3107,0,0,1,2.2007-.2046c2.3569,0,3.97.9726,3.97,3.2,0,1.9716-1.5122,3.2768-3.8921,3.2768H47.8259Z" transform="translate(-1.8635 -2)" fill="#fff" fill-rule="evenodd"/><rect x="57.854" y="13.3312" width="2.2544" height="17.2568" fill="#fff"/><path d="M65.3635,31.7184a8.9007,8.9007,0,0,0,4.4038,1.126c4.0713,0,6.0171-2.33,6.0171-4.9673,0-2.5347-1.459-3.917-4.3793-5.07-2.38-.9209-3.43-1.7154-3.43-3.3028,0-1.1787.8965-2.5859,3.2505-2.5859a6.3972,6.3972,0,0,1,3.2534.8188l.6133-1.8432a8.0673,8.0673,0,0,0-3.789-.8189c-3.3531,0-5.5816,1.9971-5.5816,4.6856,0,2.4057,1.7412,3.8906,4.5572,4.8647,2.33.8706,3.251,1.8179,3.251,3.4312,0,1.7407-1.33,2.9184-3.609,2.9184a7.7934,7.7934,0,0,1-3.97-1.101Z" transform="translate(-1.8635 -2)" fill="#fff" fill-rule="evenodd"/><path d="M94.18,32.588h2.2027L95.3074,15.3312H92.4641l-3.0718,8.3467c-.7675,2.1767-1.3832,4.0971-1.8427,5.8379h-.0528c-.4595-1.792-1.0249-3.7129-1.7412-5.8379l-2.9429-8.3467H79.9705L78.7664,32.588h2.1259l.459-7.4c.1538-2.5854.2828-5.479.333-7.6294h.0508c.4868,2.0484,1.1533,4.2754,1.9736,6.7085l2.8164,8.2188h1.6885l3.0485-8.3721c.871-2.356,1.56-4.5581,2.1761-6.5552h.05c0,2.125.1538,5.07.2822,7.45Z" transform="translate(-1.8635 -2)" fill="#fff" fill-rule="evenodd"/><path d="M106.9426,32.87c4.3789,0,7.99-3.1757,7.99-9.0893,0-5.1211-3.0483-8.7315-7.7852-8.7315-4.6089,0-7.9878,3.5845-7.9878,9.0645,0,5.2236,3.1748,8.7563,7.7578,8.7563Zm.0781-1.8178c-3.5083,0-5.5073-3.354-5.5073-6.99,0-3.7382,1.8452-7.1948,5.5577-7.1948s5.5048,3.5845,5.5048,7.0161c0,3.917-1.9966,7.169-5.53,7.169Z" transform="translate(-1.8635 -2)" fill="#fff" fill-rule="evenodd"/><path d="M123.9675,32.5377a31.3234,31.3234,0,0,0,4.0708.2046c3.3545,0,6.0166-.8711,7.6573-2.4839a9.23,9.23,0,0,0,2.4838-6.7085,7.8728,7.8728,0,0,0-2.4589-6.1963c-1.5113-1.4077-3.7906-2.15-6.99-2.15a32.4618,32.4618,0,0,0-4.7627.3584Zm2.2539-15.3369a12.6069,12.6069,0,0,1,2.6118-.2314c4.7095,0,7.0162,2.5864,6.9893,6.6562,0,4.6611-2.585,7.35-7.3477,7.3247a14.2433,14.2433,0,0,1-2.2534-.104Z" transform="translate(-1.8635 -2)" fill="#fff" fill-rule="evenodd"/><polygon points="148.462 20.654 141.78 20.654 141.78 15.201 148.874 15.201 148.874 13.331 139.528 13.331 139.528 30.588 149.258 30.588 149.258 28.719 141.78 28.719 141.78 22.498 148.462 22.498 148.462 20.654" fill="#fff" fill-rule="evenodd"/><path d="M303.6277,43.7765c0-3.9531-.0791-7.1943-.3154-10.3569h6.0869l.3164,6.1665h.2373A13.1886,13.1886,0,0,1,321.97,32.55a11.3132,11.3132,0,0,1,10.832,7.669h.1572a15.7751,15.7751,0,0,1,4.27-4.981,13.059,13.059,0,0,1,8.46-2.688c5.06,0,12.57,3.32,12.57,16.6021V71.6842h-6.8V50.0221c0-7.3525-2.6875-11.78-8.3006-11.78-3.9533,0-7.0363,2.9253-8.2228,6.3247a11.4855,11.4855,0,0,0-.5527,3.4785V71.6842h-6.8V48.7565c0-6.0869-2.6875-10.5142-7.9844-10.5142-4.3486,0-7.5108,3.4785-8.6182,6.957a9.6076,9.6076,0,0,0-.5527,3.4v23.085h-6.8Z" transform="translate(-1.8635 -2)" fill="#fff"/><path d="M396.4441,62.5133a53.8547,53.8547,0,0,0,.6328,9.1709h-6.3252l-.5526-4.8223h-.2374a14.2541,14.2541,0,0,1-11.7012,5.6924c-7.7481,0-11.7012-5.456-11.7012-10.9892,0-9.25,8.2228-14.3106,23.0069-14.2315v-.79c0-3.1626-.87-8.855-8.6963-8.855a19.0672,19.0672,0,0,0-9.9618,2.8462l-1.5812-4.5855a23.7519,23.7519,0,0,1,12.57-3.3994c11.7012,0,14.5469,7.9849,14.5469,15.6538Zm-6.72-10.3564c-7.59-.1582-16.2071,1.1855-16.2071,8.6172,0,4.5058,3.0039,6.6406,6.5616,6.6406a9.52,9.52,0,0,0,9.25-6.4033,7.26,7.26,0,0,0,.3955-2.2139Z" transform="translate(-1.8635 -2)" fill="#fff"/><path d="M440.7175,15.5524v46.249c0,3.4.0791,7.2734.3164,9.8828h-6.2461l-.3164-6.6406h-.1582c-2.1338,4.2685-6.7988,7.5107-13.0449,7.5107-9.249,0-16.3652-7.8271-16.3652-19.4492-.079-12.728,7.8271-20.5552,17.1562-20.5552,5.8506,0,9.8038,2.7671,11.543,5.8506h.1582V15.5524Zm-6.957,33.4414a12.2711,12.2711,0,0,0-.3164-2.9248,10.2331,10.2331,0,0,0-10.041-8.064c-7.1944,0-11.4629,6.3247-11.4629,14.7837,0,7.748,3.7939,14.1523,11.3047,14.1523a10.4592,10.4592,0,0,0,10.1992-8.3017,12.0761,12.0761,0,0,0,.3164-3.0039Z" transform="translate(-1.8635 -2)" fill="#fff"/><path d="M456.1335,53.817c.1582,9.4082,6.167,13.2813,13.1241,13.2813a25.1647,25.1647,0,0,0,10.5937-1.9756l1.1865,4.9805a30.7368,30.7368,0,0,1-12.7285,2.4511c-11.78,0-18.8164-7.8271-18.8164-19.37S456.2917,32.55,467.4392,32.55c12.4912,0,15.8125,10.9893,15.8125,18.0249a26.2345,26.2345,0,0,1-.2373,3.2422Zm20.3976-4.9814c.079-4.4268-1.8185-11.3047-9.6456-11.3047-7.0361,0-10.1191,6.4829-10.6729,11.3047Z" transform="translate(-1.8635 -2)" fill="#fff"/><path d="M499.6161,22.6676a4.3088,4.3088,0,0,1-8.6173,0,4.2387,4.2387,0,0,1,4.3476-4.3481A4.1294,4.1294,0,0,1,499.6161,22.6676Zm-7.7482,49.0166V33.42h6.958V71.6842Z" transform="translate(-1.8635 -2)" fill="#fff"/><path d="M510.3679,45.3576c0-4.5064-.0791-8.38-.3164-11.938h6.0879l.2373,7.5107h.3154c1.7393-5.1387,5.93-8.38,10.5948-8.38a7.5266,7.5266,0,0,1,1.9765.2373v6.562a10.4534,10.4534,0,0,0-2.372-.2373c-4.9013,0-8.3809,3.7159-9.3291,8.9336a19.5685,19.5685,0,0,0-.3165,3.2412V71.6842h-6.8779Z" transform="translate(-1.8635 -2)" fill="#fff"/><path d="M562.7058,62.5133a53.9744,53.9744,0,0,0,.6318,9.1709h-6.3242l-.5537-4.8223h-.2373a14.2521,14.2521,0,0,1-11.7,5.6924c-7.748,0-11.7011-5.456-11.7011-10.9892,0-9.25,8.2226-14.3106,23.0058-14.2315v-.79c0-3.1626-.8691-8.855-8.6963-8.855a19.0621,19.0621,0,0,0-9.9609,2.8462l-1.5821-4.5855A23.7556,23.7556,0,0,1,548.1589,32.55c11.7,0,14.5469,7.9849,14.5469,15.6538Zm-6.7207-10.3564c-7.5889-.1582-16.207,1.1855-16.207,8.6172,0,4.5058,3.005,6.6406,6.5625,6.6406a9.5211,9.5211,0,0,0,9.25-6.4033,7.2887,7.2887,0,0,0,.3945-2.2139Z" transform="translate(-1.8635 -2)" fill="#fff"/></svg>