<svg width="14" height="19" fill="none" xmlns="http://www.w3.org/2000/svg"><path fill-rule="evenodd" clip-rule="evenodd" d="M9.5 7.5a2.5 2.5 0 1 1-5 0 2.5 2.5 0 0 1 5 0zm-1.667 0a.833.833 0 1 1-1.666 0 .833.833 0 0 1 1.666 0z" fill="#6c6c72"/><path fill-rule="evenodd" clip-rule="evenodd" d="M13.667 7.419c0 4.647-4.532 9.617-6.123 11.218a.76.76 0 0 1-1.088 0C4.865 17.036.333 12.066.333 7.42.333 3.782 3.318.833 7 .833s6.667 2.949 6.667 6.586zm-1.667 0c0 1.831-.916 3.9-2.19 5.835C8.857 14.7 7.788 15.95 7 16.798c-.788-.848-1.857-2.097-2.81-3.544C2.917 11.319 2 9.25 2 7.419 2 4.72 4.22 2.5 7 2.5s5 2.221 5 4.919z" fill="#6c6c72"/></svg>